Coordinates
version=1
nRows=31
nColumns=38
inDegrees=no

Units are S.I. units (second, meters, Newtons, ...)
If the header above contains a line with 'inDegrees', this indicates whether rotational values are in degrees (yes) or radians (no).

endheader
time	pelvis_tilt	pelvis_list	pelvis_rotation	pelvis_tx	pelvis_ty	pelvis_tz	hip_flexion_r	hip_adduction_r	hip_rotation_r	knee_angle_r	ankle_angle_r	subtalar_angle_r	mtp_angle_r	hip_flexion_l	hip_adduction_l	hip_rotation_l	knee_angle_l	ankle_angle_l	subtalar_angle_l	mtp_angle_l	lumbar_extension	lumbar_bending	lumbar_rotation	arm_flex_r	arm_add_r	arm_rot_r	elbow_flex_r	pro_sup_r	wrist_flex_r	wrist_dev_r	arm_flex_l	arm_add_l	arm_rot_l	elbow_flex_l	pro_sup_l	wrist_flex_l	wrist_dev_l
50	0.305228	1.46654	1.40422	0.622622	0.362908	1.05589	0.212412	-0.0804955	-0.211574	0.251063	-0.349912	0	0	0.156307	-0.182424	-0.239392	0.205488	-0.308802	0	0	-0.0866618	-0.0178763	-0.0920963	0.55546	-0.315765	0.355465	0.965386	0	0	0	0.274383	-0.462399	0.0600707	1.23165	0.850764	0	0
50.01	0.316429	1.47328	1.39129	0.622685	0.363425	1.05669	0.207093	-0.0805345	-0.207782	0.255659	-0.347526	0	0	0.149303	-0.182784	-0.241552	0.208136	-0.307203	0	0	-0.0874118	-0.017326	-0.0879006	0.555612	-0.324355	0.363862	0.972115	0	0	0	0.276975	-0.461717	0.0632678	1.23231	0.849048	0	0
50.02	0.327809	1.47864	1.37793	0.622842	0.363931	1.05731	0.202938	-0.0800789	-0.202616	0.259558	-0.345227	0	0	0.143819	-0.183367	-0.243951	0.210971	-0.305524	0	0	-0.0867135	-0.016898	-0.0840273	0.555693	-0.331249	0.371074	0.97746	0	0	0	0.278446	-0.460936	0.0651284	1.23311	0.848557	0	0
50.03	0.341743	1.48285	1.36211	0.623009	0.364456	1.0578	0.199395	-0.0790798	-0.197147	0.262421	-0.343091	0	0	0.139687	-0.184353	-0.246319	0.214059	-0.303911	0	0	-0.0848929	-0.0162407	-0.0804643	0.555617	-0.337606	0.37838	0.982122	0	0	0	0.279319	-0.460044	0.0666388	1.23369	0.847965	0	0
50.04	0.358652	1.48616	1.34361	0.623163	0.365006	1.05821	0.196311	-0.0778097	-0.192313	0.26476	-0.341029	0	0	0.136839	-0.185812	-0.248795	0.217876	-0.301786	0	0	-0.0822326	-0.0152624	-0.0774098	0.555467	-0.343061	0.38464	0.985742	0	0	0	0.279951	-0.459062	0.0680855	1.23368	0.846771	0	0
50.05	0.369332	1.48795	1.33096	0.623452	0.365662	1.05846	0.194523	-0.0765126	-0.18662	0.266279	-0.339382	0	0	0.135437	-0.187204	-0.251775	0.221488	-0.30023	0	0	-0.0772369	-0.0149027	-0.0748163	0.554645	-0.345394	0.388292	0.986776	0	0	0	0.279169	-0.458537	0.068752	1.23335	0.846054	0	0
50.06	0.374456	1.48828	1.32359	0.623833	0.366374	1.05853	0.193898	-0.0750771	-0.18019	0.266752	-0.33773	0	0	0.135568	-0.188628	-0.25483	0.225179	-0.298613	0	0	-0.0703612	-0.0148284	-0.0721922	0.55347	-0.346745	0.390759	0.986646	0	0	0	0.277765	-0.458369	0.0695317	1.23267	0.845105	0	0
50.07	0.377934	1.48793	1.31817	0.624225	0.367084	1.05853	0.194068	-0.0737392	-0.174761	0.267536	-0.336411	0	0	0.136232	-0.189973	-0.256632	0.228225	-0.297416	0	0	-0.0630808	-0.0148135	-0.0701548	0.552157	-0.34736	0.392483	0.986212	0	0	0	0.275717	-0.458567	0.0699447	1.23249	0.844723	0	0
50.08	0.379444	1.4869	1.31495	0.624614	0.367763	1.05845	0.195435	-0.0726415	-0.170504	0.269282	-0.335151	0	0	0.13767	-0.191282	-0.257825	0.231157	-0.295973	0	0	-0.0553414	-0.0147236	-0.0681729	0.550669	-0.348302	0.394622	0.986009	0	0	0	0.273709	-0.45891	0.070922	1.23221	0.843894	0	0
50.09	0.379816	1.48573	1.3131	0.624992	0.36839	1.05834	0.196724	-0.0716453	-0.166924	0.27023	-0.335143	0	0	0.139093	-0.192354	-0.258235	0.233479	-0.294749	0	0	-0.0481329	-0.0146209	-0.0664647	0.549402	-0.349641	0.397381	0.986396	0	0	0	0.271562	-0.459369	0.0717166	1.23251	0.842965	0	0
50.1	0.40659	1.49046	1.28852	0.624559	0.369382	1.05903	0.188154	-0.0715164	-0.173905	0.267054	-0.336745	0	0	0.133011	-0.192791	-0.25745	0.233289	-0.294709	0	0	-0.0482772	-0.0135541	-0.0680926	0.548618	-0.35207	0.400239	0.987727	0	0	0	0.270128	-0.459085	0.0723883	1.23317	0.84229	0	0
50.11	0.426722	1.49383	1.27035	0.624187	0.370265	1.05955	0.181985	-0.0717138	-0.180018	0.265295	-0.337353	0	0	0.128415	-0.192875	-0.256315	0.232771	-0.295212	0	0	-0.0469739	-0.0130719	-0.0697157	0.547623	-0.353353	0.401869	0.98807	0	0	0	0.268417	-0.458793	0.0727661	1.23366	0.841595	0	0
50.12	0.439819	1.49616	1.25873	0.623884	0.371008	1.05994	0.177995	-0.0722174	-0.184907	0.265012	-0.337524	0	0	0.124982	-0.192671	-0.255547	0.232349	-0.295241	0	0	-0.0448113	-0.0128946	-0.0711402	0.546664	-0.353747	0.402364	0.987822	0	0	0	0.266335	-0.458583	0.072709	1.23429	0.84179	0	0
50.13	0.454281	1.49878	1.24559	0.623599	0.371619	1.06035	0.174233	-0.0728505	-0.189998	0.265389	-0.337819	0	0	0.120962	-0.192267	-0.254503	0.231296	-0.295006	0	0	-0.0435573	-0.012741	-0.0723782	0.546164	-0.35457	0.40392	0.987805	0	0	0	0.264663	-0.458352	0.0726256	1.23486	0.841916	0	0
50.14	0.468151	1.50132	1.23257	0.623361	0.372088	1.06069	0.171208	-0.0734984	-0.194081	0.26653	-0.338046	0	0	0.116809	-0.191697	-0.25392	0.229684	-0.294714	0	0	-0.0429902	-0.0126092	-0.073085	0.546463	-0.356002	0.405874	0.987849	0	0	0	0.263441	-0.458	0.0724859	1.23552	0.841916	0	0
50.15	0.480101	1.50363	1.22112	0.623237	0.372373	1.06097	0.169199	-0.0741304	-0.196645	0.268593	-0.337987	0	0	0.113089	-0.19114	-0.253538	0.228057	-0.294529	0	0	-0.0428146	-0.0127096	-0.0734688	0.547188	-0.357259	0.408248	0.987842	0	0	0	0.262666	-0.457917	0.0724962	1.23635	0.841932	0	0
50.16	0.48837	1.50555	1.2129	0.623237	0.372477	1.06116	0.168086	-0.0746159	-0.197449	0.270834	-0.337621	0	0	0.110006	-0.190543	-0.253348	0.226535	-0.294433	0	0	-0.0428154	-0.0130621	-0.0735831	0.548401	-0.358419	0.411256	0.987863	0	0	0	0.262142	-0.458183	0.0724956	1.23738	0.841808	0	0
50.17	0.493006	1.5071	1.20784	0.623343	0.372439	1.06127	0.167688	-0.0749466	-0.196407	0.273132	-0.336948	0	0	0.107487	-0.190013	-0.253554	0.225212	-0.29434	0	0	-0.0430082	-0.0134281	-0.0731812	0.550095	-0.359923	0.414329	0.988116	0	0	0	0.261966	-0.45868	0.0727058	1.23858	0.841356	0	0
50.18	0.495157	1.50833	1.20478	0.623568	0.37229	1.06131	0.167817	-0.0750404	-0.193725	0.275372	-0.335956	0	0	0.105412	-0.189639	-0.254298	0.224091	-0.294231	0	0	-0.0433431	-0.013892	-0.0723018	0.551899	-0.361414	0.417372	0.988691	0	0	0	0.262076	-0.459601	0.0732473	1.23993	0.840956	0	0
50.19	0.493781	1.50918	1.20484	0.623904	0.372039	1.06128	0.168558	-0.0749785	-0.189625	0.277613	-0.334678	0	0	0.104012	-0.189421	-0.255497	0.223308	-0.294143	0	0	-0.0437739	-0.0145954	-0.0710549	0.553711	-0.362686	0.420114	0.989478	0	0	0	0.262485	-0.46049	0.0736123	1.24121	0.840367	0	0
50.2	0.488761	1.50955	1.20828	0.624317	0.371692	1.06117	0.169993	-0.0747921	-0.184582	0.279773	-0.333245	0	0	0.103531	-0.189408	-0.257001	0.223155	-0.293998	0	0	-0.0443944	-0.0154615	-0.0694871	0.555466	-0.364105	0.42259	0.990849	0	0	0	0.263158	-0.461245	0.0737406	1.24263	0.839744	0	0
50.21	0.480634	1.50951	1.2148	0.62476	0.371275	1.06101	0.172278	-0.0746438	-0.17933	0.282483	-0.33165	0	0	0.103977	-0.18956	-0.258638	0.223758	-0.29376	0	0	-0.0449804	-0.0164052	-0.067849	0.557102	-0.365492	0.425013	0.992525	0	0	0	0.263984	-0.461804	0.0736796	1.24399	0.839336	0	0
50.22	0.46144	1.50785	1.23081	0.625576	0.370563	1.06062	0.17822	-0.0740294	-0.17006	0.287743	-0.326028	0	0	0.106708	-0.19017	-0.260977	0.225479	-0.293152	0	0	-0.0455835	-0.0175666	-0.0674911	0.562275	-0.365793	0.43289	0.993544	0	0	0	0.26136	-0.463393	0.067879	1.24946	0.840661	0	0
50.23	0.489817	1.51244	1.20479	0.625134	0.37053	1.06119	0.172198	-0.075022	-0.175633	0.287393	-0.326009	0	0	0.101448	-0.189796	-0.261611	0.224579	-0.293619	0	0	-0.0512366	-0.0175526	-0.0708278	0.56448	-0.36433	0.43283	0.992227	0	0	0	0.261422	-0.463344	0.066425	1.25016	0.841249	0	0
50.24	0.503446	1.51437	1.19213	0.625057	0.370237	1.06143	0.170484	-0.0753304	-0.177252	0.288251	-0.325745	0	0	0.0997639	-0.18985	-0.262018	0.224671	-0.293798	0	0	-0.0544344	-0.017727	-0.0730181	0.566975	-0.362053	0.431911	0.990136	0	0	0	0.261357	-0.463743	0.064862	1.251	0.841427	0	0
50.25	0.513611	1.5158	1.18303	0.625016	0.369904	1.0616	0.169554	-0.0757266	-0.178852	0.289394	-0.325343	0	0	0.0988441	-0.189898	-0.262312	0.225062	-0.293781	0	0	-0.057266	-0.0179243	-0.0753194	0.569453	-0.359365	0.430332	0.987662	0	0	0	0.261284	-0.464335	0.0634428	1.25179	0.841146	0	0
50.26	0.520773	1.51679	1.17699	0.625027	0.369509	1.0617	0.169409	-0.0761199	-0.180424	0.290949	-0.324793	0	0	0.0986201	-0.189951	-0.262441	0.225664	-0.293648	0	0	-0.0599231	-0.0181864	-0.0776948	0.571672	-0.356091	0.428003	0.985041	0	0	0	0.261241	-0.465133	0.0620947	1.25271	0.840591	0	0
50.27	0.523823	1.51727	1.175	0.625051	0.369064	1.06173	0.170163	-0.0765739	-0.181934	0.29298	-0.32413	0	0	0.099261	-0.189983	-0.262093	0.226591	-0.293476	0	0	-0.0622312	-0.0184512	-0.0799999	0.573968	-0.352413	0.424791	0.981812	0	0	0	0.261154	-0.465743	0.0605864	1.25357	0.839693	0	0
50.28	0.521604	1.51717	1.17805	0.625102	0.368589	1.06168	0.171848	-0.0770649	-0.183081	0.295329	-0.323375	0	0	0.100642	-0.189988	-0.261497	0.227631	-0.293292	0	0	-0.0641144	-0.0188042	-0.0821122	0.576461	-0.348647	0.421231	0.9781	0	0	0	0.26103	-0.466302	0.0590338	1.2544	0.838808	0	0
50.29	0.515371	1.51637	1.18487	0.625206	0.36808	1.06152	0.174528	-0.0774169	-0.183641	0.29789	-0.322513	0	0	0.102906	-0.190104	-0.260641	0.228691	-0.293075	0	0	-0.0651723	-0.019123	-0.0840595	0.578706	-0.344593	0.418053	0.974164	0	0	0	0.260803	-0.467067	0.057621	1.255	0.838465	0	0
50.3	0.505458	1.51494	1.19507	0.625385	0.367527	1.06128	0.178092	-0.0775884	-0.183662	0.300628	-0.321558	0	0	0.106006	-0.190365	-0.259659	0.229947	-0.292679	0	0	-0.0655356	-0.0194701	-0.0856868	0.580667	-0.340233	0.415133	0.970029	0	0	0	0.260619	-0.467978	0.0563685	1.25537	0.838718	0	0
